<svg width="48" height="41" viewBox="0 0 48 41" fill="none" xmlns="http://www.w3.org/2000/svg">
<path d="M37.019 8.52554V9.02554H37.519H42.5886C43.8006 9.02554 44.9629 9.50698 45.8198 10.3639C46.6768 11.2209 47.1582 12.3832 47.1582 13.5952V37.2534C47.1582 38.0171 46.8549 38.7496 46.3148 39.2897C45.7747 39.8297 45.0423 40.1331 44.2785 40.1331H3.72154C2.95779 40.1331 2.22531 39.8297 1.68525 39.2897C1.1452 38.7496 0.841797 38.0171 0.841797 37.2534V13.5952C0.841797 12.3832 1.32324 11.2209 2.18021 10.3639C3.03718 9.50698 4.19948 9.02554 5.41142 9.02554H10.481H10.981V8.52554V3.45592C10.981 2.69216 11.2844 1.95969 11.8245 1.41963C12.3646 0.879573 13.097 0.576172 13.8608 0.576172H34.1393C34.903 0.576172 35.6355 0.879573 36.1756 1.41963C36.7156 1.95969 37.019 2.69216 37.019 3.45592V8.52554ZM13.8608 2.95592H13.3608V3.45592V8.52554V9.02554H13.8608H34.1393H34.6393V8.52554V3.45592V2.95592H34.1393H13.8608ZM44.2785 37.7534H44.7785V37.2534V22.0445V21.5445H44.2785H30.7595H30.2595V22.0445V29.9939H17.7405V22.0445V21.5445H17.2405H3.72154H3.22154V22.0445V37.2534V37.7534H3.72154H44.2785ZM20.6203 21.5445H20.1203V22.0445V27.1141V27.6141H20.6203H27.3798H27.8798V27.1141V22.0445V21.5445H27.3798H20.6203ZM3.22154 18.6648V19.1648H3.72154H44.2785H44.7785V18.6648V13.5952C44.7785 13.0144 44.5478 12.4574 44.1371 12.0467C43.7264 11.636 43.1694 11.4053 42.5886 11.4053H5.41142C4.83063 11.4053 4.27362 11.636 3.86294 12.0467C3.45226 12.4574 3.22154 13.0144 3.22154 13.5952V18.6648Z" fill="#0D5C63" stroke="black"/>
</svg>
